HIERARCHY
ROOT root
{
  OFFSET 0 93.2929 0
  CHANNELS 6 Xposition Yposition Zposition Zrotation Xrotation Yrotation
  JOINT torso_1
  {
    OFFSET 0 5.07867 -1.15138
    CHANNELS 6 Xposition Yposition Zposition Zrotation Xrotation Yrotation
    JOINT torso_2
    {
      OFFSET 0 5.61661 1.07143
      CHANNELS 6 Xposition Yposition Zposition Zrotation Xrotation Yrotation
      JOINT torso_3
      {
        OFFSET -1.02604e-17 5.98978 0.11501
        CHANNELS 6 Xposition Yposition Zposition Zrotation Xrotation Yrotation
        JOINT torso_4
        {
          OFFSET -1.10457e-17 6.50583 -0.443523
          CHANNELS 6 Xposition Yposition Zposition Zrotation Xrotation Yrotation
          JOINT torso_5
          {
            OFFSET -1.97295e-17 7.60548 -1.50593
            CHANNELS 6 Xposition Yposition Zposition Zrotation Xrotation Yrotation
            JOINT torso_6
            {
              OFFSET -2.53307e-17 9.49737 -0.914492
              CHANNELS 6 Xposition Yposition Zposition Zrotation Xrotation Yrotation
              JOINT torso_7
              {
                OFFSET -2.90401e-17 10.5513 1.57691
                CHANNELS 6 Xposition Yposition Zposition Zrotation Xrotation Yrotation
                JOINT neck_1
                {
                  OFFSET -1.29193e-17 4.78644 0.715339
                  CHANNELS 6 Xposition Yposition Zposition Zrotation Xrotation Yrotation
                  JOINT neck_2
                  {
                    OFFSET -1.8116e-17 4.82109 0.421791
                    CHANNELS 6 Xposition Yposition Zposition Zrotation Xrotation Yrotation
                    JOINT head
                    {
                      OFFSET -2.00958e-17 4.83041 0.765062
                      CHANNELS 6 Xposition Yposition Zposition Zrotation Xrotation Yrotation
                      End Site
                      {
                        OFFSET 0 0.1 0
                      }
                    }
                  }
                }
                JOINT l_shoulder
                {
                  OFFSET 1.23299 -7.60731 7.53374
                  CHANNELS 6 Xposition Yposition Zposition Zrotation Xrotation Yrotation
                  JOINT l_up_arm
                  {
                    OFFSET 12.9547 3.2495 -3.26872
                    CHANNELS 6 Xposition Yposition Zposition Zrotation Xrotation Yrotation
                    JOINT l_low_arm
                    {
                      OFFSET 29.2081 0.0598081 0.137039
                      CHANNELS 6 Xposition Yposition Zposition Zrotation Xrotation Yrotation
                      JOINT l_hand
                      {
                        OFFSET 24.234 0.0496219 0.113701
                        CHANNELS 6 Xposition Yposition Zposition Zrotation Xrotation Yrotation
                        End Site
                        {
                          OFFSET 0.1 0 0
                        }
                      }
                    }
                  }
                }
                JOINT r_shoulder
                {
                  OFFSET -1.23299 -7.60729 7.53365
                  CHANNELS 6 Xposition Yposition Zposition Zrotation Xrotation Yrotation
                  JOINT r_up_arm
                  {
                    OFFSET -12.9547 3.2495 -3.26872
                    CHANNELS 6 Xposition Yposition Zposition Zrotation Xrotation Yrotation
                    JOINT r_low_arm
                    {
                      OFFSET -29.2081 0.0598081 0.137039
                      CHANNELS 6 Xposition Yposition Zposition Zrotation Xrotation Yrotation
                      JOINT r_hand
                      {
                        OFFSET -24.234 0.0496218 0.113702
                        CHANNELS 6 Xposition Yposition Zposition Zrotation Xrotation Yrotation
                        End Site
                        {
                          OFFSET -0.1 0 0
                        }
                      }
                    }
                  }
                }
              }
            }
          }
        }
      }
    }
  }
  JOINT l_up_leg
  {
    OFFSET 9.23673 -4.20556 2.0327
    CHANNELS 6 Xposition Yposition Zposition Zrotation Xrotation Yrotation
    JOINT l_low_leg
    {
      OFFSET -0.852353 -38.7721 -0.655187
      CHANNELS 6 Xposition Yposition Zposition Zrotation Xrotation Yrotation
      JOINT l_foot
      {
        OFFSET -2.32622 -40.4017 -6.04875
        CHANNELS 6 Xposition Yposition Zposition Zrotation Xrotation Yrotation
        JOINT l_toes
        {
          OFFSET 0.779096 -9.8844 12.4959
          CHANNELS 6 Xposition Yposition Zposition Zrotation Xrotation Yrotation
          End Site
          {
            OFFSET 0 0 0.1
          }
        }
      }
    }
  }
  JOINT r_up_leg
  {
    OFFSET -9.23673 -4.20556 2.0327
    CHANNELS 6 Xposition Yposition Zposition Zrotation Xrotation Yrotation
    JOINT r_low_leg
    {
      OFFSET 0.852353 -38.7721 -0.655187
      CHANNELS 6 Xposition Yposition Zposition Zrotation Xrotation Yrotation
      JOINT r_foot
      {
        OFFSET 2.32622 -40.4017 -6.04875
        CHANNELS 6 Xposition Yposition Zposition Zrotation Xrotation Yrotation
        JOINT r_toes
        {
          OFFSET -0.779096 -9.8844 12.4959
          CHANNELS 6 Xposition Yposition Zposition Zrotation Xrotation Yrotation
          End Site
          {
            OFFSET 0 0 0.1
          }
        }
      }
    }
  }
}
MOTION
Frames: 4
Frame Time: 0.016667
107.161 92.212 -28.2481 -1.85786 7.11657 35.6594 0 5.07867 -1.15138 0.245149 -3.86414 -0.851913 0 5.61661 1.07143 0.77249 -1.89774 -0.877224 -1.02604e-17 5.98978 0.11501 0.801327 0.802055 -0.852969 -1.10457e-17 6.50583 -0.443523 0.934981 5.18159 -0.813182 -1.97295e-17 7.60548 -1.50593 0.697461 7.39627 -0.900315 -2.53307e-17 9.49737 -0.914492 0.446945 8.08459 -1.14163 -2.90401e-17 10.5513 1.57691 -0.189884 -0.154985 -0.333563 -1.29193e-17 4.78644 0.715339 -0.58756 2.56113 -26.0411 -1.8116e-17 4.82109 0.421791 7.10882 -5.77326 -12.3012 -2.00958e-17 4.83041 0.765062 13.3317 -9.84759 -12.497 1.23299 -7.60731 7.53374 -8.26385 0.407183 -2.50429 12.9547 3.2495 -3.26872 -82.5858 -5.79604 -13.0263 29.2081 0.0598081 0.137039 1.52999 -0.0909152 -7.39313 24.234 0.0496219 0.113701 -2.56289 -9.87261 -3.14158 -1.23299 -7.60729 7.53365 -6.91921 -2.14752 -0.619583 -12.9547 3.2495 -3.26872 83.8962 23.028 15.601 -29.2081 0.0598081 0.137039 -6.1804 -1.69355 31.2155 -24.234 0.0496218 0.113702 -0.458788 -7.97658 13.8029 9.23673 -4.20556 2.0327 -7.69998 -20.4103 -50.7018 -0.852353 -38.7721 -0.655187 -3.77925 13.932 0.21741 -2.32622 -40.4017 -6.04875 -4.52486 0.97188 16.1527 0.779096 -9.8844 12.4959 8.87101e-16 -7.55769e-16 -2.69454e-17 -9.23673 -4.20556 2.0327 1.97351 -20.7164 38.6628 0.852353 -38.7721 -0.655187 -0.362463 -1.35115 -0.0278606 2.32622 -40.4017 -6.04875 8.24208 9.83245 -15.3923 -0.779096 -9.8844 12.4959 -6.63469e-16 -5.56985e-16 -1.27429e-14 
107.622 92.2199 -28.6715 -2.01127 7.44863 32.0748 0 5.07867 -1.15138 0.257774 -3.76089 -0.801207 0 5.61661 1.07143 0.781049 -1.79588 -0.820557 -1.02604e-17 5.98978 0.11501 0.795606 0.860085 -0.794747 -1.10457e-17 6.50583 -0.443523 0.915878 5.18574 -0.756544 -1.97295e-17 7.60548 -1.50593 0.66813 7.35574 -0.838569 -2.53307e-17 9.49737 -0.914492 0.422626 8.01308 -1.0518 -2.90401e-17 10.5513 1.57691 -0.188635 -0.157876 -0.340057 -1.29193e-17 4.78644 0.715339 -0.786314 2.1792 -25.5007 -1.8116e-17 4.82109 0.421791 7.24618 -5.5229 -11.9493 -2.00958e-17 4.83041 0.765062 13.4639 -9.53419 -11.9299 1.23299 -7.60731 7.53374 -8.05965 0.474213 -2.61154 12.9547 3.2495 -3.26872 -82.7249 -6.26108 -13.1298 29.2081 0.0598081 0.137039 1.52201 -0.0899232 -7.35439 24.234 0.0496219 0.113701 -2.65159 -9.46285 -3.71491 -1.23299 -7.60729 7.53365 -6.79086 -2.02118 -0.517254 -12.9547 3.2495 -3.26872 83.5836 23.7868 15.8326 -29.2081 0.0598081 0.137039 -6.23545 -1.7267 31.5236 -24.234 0.0496218 0.113702 -0.549369 -8.38641 14.1203 9.23673 -4.20556 2.0327 -6.64455 -19.5261 -51.0084 -0.852353 -38.7721 -0.655187 -3.30577 12.2322 0.139924 -2.32622 -40.4017 -6.04875 -3.80947 -0.61807 15.9862 0.779096 -9.8844 12.4959 2.916e-16 -7.82635e-16 -7.99774e-20 -9.23673 -4.20556 2.0327 3.10888 -21.6885 41.3958 0.852353 -38.7721 -0.655187 -0.27131 -1.01166 -0.0200546 2.32622 -40.4017 -6.04875 9.03886 10.7438 -15.5187 -0.779096 -9.8844 12.4959 4.60419e-16 -6.08618e-16 -1.27883e-14 
108.068 92.2476 -29.1058 -2.15869 7.89565 28.2418 0 5.07867 -1.15138 0.250087 -3.72891 -0.765363 0 5.61661 1.07143 0.758951 -1.74949 -0.780423 -1.02604e-17 5.98978 0.11501 0.775897 0.900282 -0.741335 -1.10457e-17 6.50583 -0.443523 0.898941 5.1979 -0.701713 -1.97295e-17 7.60548 -1.50593 0.672608 7.34084 -0.781987 -2.53307e-17 9.49737 -0.914492 0.452047 8.00465 -0.979791 -2.90401e-17 10.5513 1.57691 -0.185356 -0.180418 -0.335936 -1.29193e-17 4.78644 0.715339 -1.07616 1.53069 -25.0116 -1.8116e-17 4.82109 0.421791 7.50992 -5.31322 -11.6522 -2.00958e-17 4.83041 0.765062 13.3698 -8.86657 -10.8731 1.23299 -7.60731 7.53374 -7.82868 0.477094 -2.78661 12.9547 3.2495 -3.26872 -82.7289 -6.51748 -13.2907 29.2081 0.0598081 0.137039 1.50769 -0.0881583 -7.28482 24.234 0.0496219 0.113701 -2.81348 -9.59588 -4.22859 -1.23299 -7.60729 7.53365 -6.43637 -1.87086 -0.392772 -12.9547 3.2495 -3.26872 83.2409 24.1085 16.0498 -29.2081 0.0598081 0.137039 -6.25135 -1.73636 31.6128 -24.234 0.0496218 0.113702 -0.594953 -8.24198 14.4549 9.23673 -4.20556 2.0327 -5.3577 -18.8649 -49.258 -0.852353 -38.7721 -0.655187 -2.88544 10.7069 0.082974 -2.32622 -40.4017 -6.04875 -3.03814 -1.76139 15.8256 0.779096 -9.8844 12.4959 2.48481e-17 -7.95139e-16 1.2424e-17 -9.23673 -4.20556 2.0327 4.46495 -22.7361 44.1271 0.852353 -38.7721 -0.655187 -0.173905 -0.648639 -0.0123064 2.32622 -40.4017 -6.04875 9.61644 11.9583 -15.6771 -0.779096 -9.8844 12.4959 1.19185e-15 -6.39811e-16 -1.28216e-14 
108.489 92.306 -29.563 -2.23297 8.50118 24.2663 0 5.07867 -1.15138 0.221606 -3.78872 -0.748744 0 5.61661 1.07143 0.708914 -1.77321 -0.763036 -1.02604e-17 5.98978 0.11501 0.744075 0.91886 -0.702996 -1.10457e-17 6.50583 -0.443523 0.885611 5.2443 -0.659659 -1.97295e-17 7.60548 -1.50593 0.705482 7.39301 -0.741405 -2.53307e-17 9.49737 -0.914492 0.52217 8.10325 -0.936301 -2.90401e-17 10.5513 1.57691 -0.180109 -0.228343 -0.325143 -1.29193e-17 4.78644 0.715339 -1.49027 0.548393 -24.547 -1.8116e-17 4.82109 0.421791 7.85879 -5.17144 -11.3939 -2.00958e-17 4.83041 0.765062 13.1211 -7.90325 -9.54577 1.23299 -7.60731 7.53374 -7.63579 0.418544 -3.01073 12.9547 3.2495 -3.26872 -82.6267 -6.63765 -13.5515 29.2081 0.0598081 0.137039 1.49295 -0.0863628 -7.21328 24.234 0.0496219 0.113701 -3.04021 -10.254 -4.71183 -1.23299 -7.60729 7.53365 -5.89566 -1.72689 -0.23565 -12.9547 3.2495 -3.26872 82.8337 24.0715 16.3558 -29.2081 0.0598081 0.137039 -6.23343 -1.72548 31.5123 -24.234 0.0496218 0.113702 -0.731038 -7.62741 14.697 9.23673 -4.20556 2.0327 -4.02213 -18.6471 -45.6583 -0.852353 -38.7721 -0.655187 -2.55374 9.49378 0.0459826 -2.32622 -40.4017 -6.04875 -2.90791 -2.4193 15.7004 0.779096 -9.8844 12.4959 2.48481e-17 -7.95139e-16 1.2424e-17 -9.23673 -4.20556 2.0327 5.93049 -23.8536 46.7092 0.852353 -38.7721 -0.655187 -0.0801191 -0.298906 -0.00542599 2.32622 -40.4017 -6.04875 10.0509 13.4851 -15.8787 -0.779096 -9.8844 12.4959 1.52316e-15 -6.5428e-16 -1.28381e-14 
